<?xml version="1.0" encoding="utf-8"?>
<!-- Generator: Adobe Illustrator 16.0.4, SVG Export Plug-In . SVG Version: 6.00 Build 0)  -->
<!DOCTYPE svg PUBLIC "-//W3C//DTD SVG 1.1//EN" "http://www.w3.org/Graphics/SVG/1.1/DTD/svg11.dtd">
<svg version="1.1" id="Ebene_1" xmlns="http://www.w3.org/2000/svg" xmlns:xlink="http://www.w3.org/1999/xlink" x="0px" y="0px"
	 width="512px" height="512px" viewBox="47.667 -122.667 512 512" enable-background="new 47.667 -122.667 512 512"
	 xml:space="preserve">
<filter  id="AI_GaußscherWeichzeichner_4">
	<feGaussianBlur  stdDeviation="4"></feGaussianBlur>
</filter>
<g id="Logo_Type" display="none">
	<rect x="8.333" y="-10.646" display="inline" fill="none" width="700" height="270.017"/>
	
		<text transform="matrix(1 0 0 1 8.3335 252.5522)" display="inline" fill="#F7F7F7" font-family="'Pacifico-Regular'" font-size="280">Erna</text>
</g>
<g id="Logo_Shape">
	<g id="Logo_Shadow" display="none">
		<g display="inline" opacity="0.5" filter="url(#AI_GaußscherWeichzeichner_4)">
			<path fill="#FFFFFF" d="M238.537,195.671c2.616,0,4.579,0.982,5.89,2.944c1.308,1.964,1.963,4.503,1.963,7.609
				c0,4.909-1.188,9.079-3.558,12.516c-2.374,3.436-6.423,6.547-12.149,9.327c-9.656,4.583-22.172,8.221-37.549,10.92
				c-15.381,2.7-30.516,4.051-45.403,4.051c-20.615,0-37.879-2.332-51.784-6.994c-13.908-4.662-24.258-11.084-31.045-19.265
				c-6.792-8.18-10.185-17.426-10.185-27.734c0-14.069,4.54-26.053,13.621-35.955c9.081-9.879,22.456-17.038,40.126-21.456
				c-9.656-2.78-17.057-7.688-22.21-14.725c-5.154-7.033-7.731-14.887-7.731-23.561c0-11.78,3.72-22.21,11.167-31.291
				c7.443-9.08,17.463-16.075,30.064-20.983c12.597-4.908,26.421-7.363,41.477-7.363c20.286,0,35.501,4.379,45.648,13.13
				c10.143,8.754,15.216,20.086,15.216,33.991c0,9.657-1.76,17.467-5.277,23.438c-3.521,5.975-8.551,8.959-15.094,8.959
				c-4.582,0-8.183-1.021-10.798-3.068c-2.619-2.044-3.927-5.112-3.927-9.203c0-2.78,0.407-5.806,1.227-9.081
				c0.817-5.399,1.227-9.081,1.227-11.044c0-5.891-2.208-10.676-6.626-14.357c-4.417-3.682-11.78-5.522-22.087-5.522
				c-13.909,0-25.033,2.945-33.377,8.835c-8.344,5.891-12.516,13.828-12.516,23.806c0,7.692,3.148,14.031,9.448,19.021
				c6.297,4.992,16.566,7.73,30.801,8.222c3.597,0.165,6.135,0.981,7.607,2.454c1.473,1.474,2.209,3.927,2.209,7.363
				c0,10.798-4.908,16.282-14.725,16.444c-13.583,0.329-24.83,2.208-33.746,5.627c-8.919,3.436-15.381,7.815-19.388,13.13
				c-4.011,5.318-6.013,11.007-6.013,17.057c0,10.146,4.744,17.794,14.234,22.948c9.487,5.154,24.542,7.729,45.157,7.729
				c13.579,0,27.936-1.594,43.072-4.786c15.132-3.191,28.101-7.072,38.899-11.657C234.856,196.162,236.899,195.671,238.537,195.671z
				"/>
			<path fill="#FFFFFF" d="M231.54,233.22c-2.539-6.543-3.804-17.015-3.804-31.413c0-21.27,3.025-41.477,9.08-60.604
				c1.473-4.743,3.885-8.221,7.24-10.43c3.352-2.208,8.057-3.313,14.111-3.313c3.271,0,5.561,0.412,6.872,1.228
				c1.308,0.821,1.963,2.374,1.963,4.663c0,2.618-1.227,8.509-3.681,17.66c-1.637,6.538-2.945,12.263-3.927,17.173
				c-0.981,4.908-1.802,10.963-2.455,18.161c5.399-14.069,11.451-25.524,18.162-34.356c6.707-8.819,13.292-15.116,19.756-18.882
				c6.462-3.762,12.394-5.645,17.793-5.645c10.635,0,15.954,5.319,15.954,15.953c0,2.129-0.736,7.271-2.211,15.444
				c-1.311,6.545-1.96,10.638-1.96,12.271c0,5.728,2.044,8.589,6.136,8.589c4.578,0,10.467-3.597,17.669-10.798
				c2.124-2.124,4.333-3.19,6.627-3.19c2.124,0,3.804,0.943,5.027,2.822c1.221,1.882,1.832,4.38,1.832,7.486
				c0,6.054-1.63,10.798-4.896,14.233c-4.582,4.747-9.939,8.796-16.074,12.147c-6.136,3.354-12.64,5.031-19.511,5.031
				c-8.675,0-15.259-2.21-19.759-6.626c-4.502-4.419-6.75-10.391-6.75-17.917c0-2.454,0.246-4.908,0.736-7.361
				c0.326-3.271,0.491-5.48,0.491-6.627c0-2.614-0.901-3.926-2.7-3.926c-2.454,0-5.687,2.741-9.694,8.221
				c-4.012,5.483-7.976,12.724-11.903,21.719c-3.927,9.002-7.117,18.492-9.572,28.468c-1.803,7.691-3.889,12.884-6.258,15.584
				c-2.374,2.699-6.098,4.05-11.167,4.05C238.45,243.039,234.075,239.766,231.54,233.22z"/>
			<path fill="#FFFFFF" d="M343.205,233.22c-2.539-6.543-3.804-17.015-3.804-31.413c0-21.27,3.025-41.477,9.08-60.604
				c1.473-4.743,3.885-8.221,7.239-10.43c3.353-2.208,8.045-3.313,14.1-3.313c3.271,0,5.561,0.412,6.872,1.228
				c1.308,0.821,1.963,2.374,1.963,4.663c0,2.618-1.227,8.509-3.682,17.66c-1.637,6.538-2.944,12.263-3.926,17.173
				c-0.982,4.908-1.803,10.963-2.455,18.161c5.399-14.069,11.448-25.524,18.162-34.356c6.706-8.819,13.291-15.116,19.756-18.882
				c6.462-3.762,12.395-5.645,17.793-5.645c10.633,0,15.952,5.319,15.952,15.953c0,6.377-1.803,17.897-5.399,34.586
				c-3.108,14.234-4.663,23.646-4.663,28.225c0,6.544,2.371,9.815,7.118,9.815c3.271,0,7.156-2.001,11.656-6.012
				c4.499-4.007,10.512-10.511,18.039-19.511c1.963-2.291,4.173-3.438,6.627-3.438c2.124,0,3.804,0.981,5.031,2.945
				c1.228,1.962,1.84,4.662,1.84,8.098c0,6.547-1.556,11.62-4.663,15.215c-7.032,8.674-14.6,15.794-22.696,21.353
				c-8.1,5.565-17.303,8.345-27.61,8.345c-8.346,0-14.646-2.412-18.899-7.241c-4.256-4.823-6.379-11.817-6.379-20.981
				c0-4.58,1.142-12.764,3.436-24.542c2.125-10.308,3.189-17.426,3.189-21.352c0-2.615-0.898-3.927-2.699-3.927
				c-2.128,0-5.115,2.743-8.957,8.223c-3.847,5.483-7.773,12.724-11.781,21.719c-4.01,9-7.24,18.491-9.693,28.469
				c-1.803,7.692-3.891,12.885-6.259,15.585c-2.374,2.699-6.096,4.048-11.155,4.048C350.116,243.039,345.74,239.766,343.205,233.22z
				"/>
			<path fill="#FFFFFF" d="M466.147,231.994c-5.811-7.361-8.714-17.016-8.714-28.96c0-13.089,3.026-25.481,9.081-37.182
				c6.051-11.696,14.112-21.088,24.175-28.206c10.061-7.118,20.738-10.675,32.026-10.675c3.597,0,6.011,0.697,7.24,2.086
				c1.227,1.392,2.247,3.889,3.067,7.485c3.107-0.65,6.543-0.981,10.308-0.981c3.927,0,6.954,0.981,9.082,2.945
				c2.124,1.963,3.188,4.747,3.188,8.344c0,3.759-0.819,10.292-2.453,19.617c-1.803,9.981-3.19,19.512-4.172,28.591
				c-0.982,9.08-1.474,19.265-1.474,30.554c0,6.222-1.269,10.678-3.806,13.377c-2.537,2.7-6.666,4.049-12.393,4.049
				c-5.565,0-9.694-1.349-12.395-4.049c-2.699-2.699-4.049-7.074-4.049-13.129l0.243-3.927
				c-5.072,14.074-13.825,21.106-26.261,21.106C479.52,243.039,471.952,239.356,466.147,231.994z M510.934,208.678
				c3.761-6.381,7.116-17.751,10.062-34.113l4.66-24.775c-6.709,0.165-12.927,2.728-18.65,7.718
				c-5.728,4.992-10.309,11.578-13.744,19.758c-3.437,8.183-5.155,16.853-5.155,26.014c0,4.908,0.94,8.632,2.825,11.167
				c1.879,2.538,4.374,3.804,7.484,3.804C502.998,218.25,507.167,215.061,510.934,208.678z"/>
		</g>
	</g>
	<g id="Logo_Shadow_Kopie" display="none">
		<g display="inline">
			<path fill="#FFFFFF" d="M235.904,192.091c2.616,0,4.579,0.983,5.891,2.945c1.307,1.963,1.963,4.502,1.963,7.609
				c0,4.908-1.188,9.079-3.559,12.515c-2.374,3.436-6.423,6.547-12.148,9.327c-9.656,4.583-22.172,8.221-37.55,10.921
				c-15.381,2.699-30.516,4.05-45.403,4.05c-20.616,0-37.879-2.331-51.784-6.993c-13.909-4.664-24.258-11.084-31.046-19.266
				c-6.791-8.18-10.185-17.426-10.185-27.734c0-14.069,4.54-26.053,13.621-35.954c9.081-9.896,22.456-17.057,40.126-21.475
				c-9.656-2.78-17.057-7.688-22.21-14.725c-5.154-7.033-7.731-14.887-7.731-23.561c0-11.78,3.72-22.211,11.167-31.291
				c7.443-9.081,17.463-16.075,30.064-20.983c12.597-4.909,26.421-7.363,41.477-7.363c20.286,0,35.501,4.378,45.648,13.129
				c10.143,8.754,15.216,20.086,15.216,33.991c0,9.657-1.76,17.467-5.276,23.438c-3.521,5.975-8.551,8.959-15.094,8.959
				c-4.583,0-8.183-1.02-10.798-3.067c-2.619-2.044-3.927-5.112-3.927-9.204c0-2.78,0.407-5.806,1.227-9.081
				c0.817-5.399,1.227-9.08,1.227-11.044c0-5.89-2.209-10.676-6.626-14.357c-4.417-3.682-11.78-5.522-22.088-5.522
				c-13.908,0-25.033,2.946-33.377,8.835c-8.344,5.89-12.517,13.828-12.517,23.806c0,7.692,3.149,14.031,9.449,19.02
				c6.297,4.993,16.566,7.731,30.8,8.222c3.597,0.165,6.136,0.981,7.608,2.454c1.473,1.474,2.208,3.927,2.208,7.362
				c0,10.799-4.908,16.282-14.725,16.443c-13.583,0.33-24.83,2.21-33.745,5.646c-8.919,3.436-15.381,7.814-19.389,13.129
				c-4.011,5.318-6.013,11.006-6.013,17.057c0,10.146,4.744,17.793,14.234,22.947c9.487,5.154,24.542,7.73,45.158,7.73
				c13.579,0,27.936-1.595,43.071-4.786c15.132-3.19,28.101-7.073,38.899-11.658C232.224,192.583,234.268,192.091,235.904,192.091z"
				/>
			<path fill="#FFFFFF" d="M228.907,229.641c-2.538-6.543-3.804-17.015-3.804-31.414c0-21.269,3.025-41.477,9.081-60.619
				c1.473-4.745,3.885-8.222,7.24-10.431c3.352-2.209,8.057-3.313,14.112-3.313c3.27,0,5.561,0.411,6.872,1.227
				c1.308,0.821,1.963,2.374,1.963,4.663c0,2.62-1.227,8.509-3.681,17.67c-1.637,6.546-2.945,12.271-3.927,17.181
				c-0.981,4.908-1.802,10.963-2.454,18.161c5.399-14.069,11.451-25.524,18.161-34.357c6.707-8.835,13.291-15.134,19.757-18.899
				c6.461-3.762,12.395-5.645,17.794-5.645c10.634,0,15.953,5.318,15.953,15.952c0,2.131-0.736,7.284-2.21,15.463
				c-1.312,6.547-1.962,10.639-1.962,12.271c0,5.729,2.044,8.591,6.136,8.591c4.577,0,10.469-3.598,17.67-10.799
				c2.123-2.125,4.333-3.191,6.626-3.191c2.124,0,3.804,0.943,5.031,2.823c1.228,1.883,1.84,4.379,1.84,7.485
				c0,6.054-1.637,10.798-4.908,14.233c-4.583,4.747-9.939,8.798-16.075,12.147c-6.135,3.355-12.639,5.031-19.511,5.031
				c-8.674,0-15.26-2.21-19.759-6.628c-4.501-4.417-6.749-10.389-6.749-17.914c0-2.454,0.246-4.909,0.736-7.36
				c0.326-3.271,0.491-5.48,0.491-6.629c0-2.614-0.901-3.926-2.7-3.926c-2.454,0-5.687,2.743-9.694,8.223
				c-4.012,5.483-7.977,12.723-11.903,21.719c-3.927,9-7.117,18.491-9.571,28.468c-1.803,7.691-3.889,12.884-6.258,15.584
				c-2.374,2.699-6.098,4.049-11.167,4.049C235.818,239.458,231.443,236.187,228.907,229.641z"/>
			<path fill="#FFFFFF" d="M340.574,229.641c-2.539-6.543-3.806-17.015-3.806-31.414c0-21.269,3.026-41.477,9.082-60.619
				c1.472-4.745,3.884-8.222,7.239-10.431c3.351-2.209,8.057-3.313,14.111-3.313c3.271,0,5.561,0.411,6.872,1.227
				c1.308,0.821,1.963,2.374,1.963,4.663c0,2.62-1.227,8.509-3.682,17.67c-1.637,6.546-2.945,12.271-3.926,17.181
				c-0.982,4.908-1.803,10.963-2.455,18.161c5.399-14.069,11.451-25.524,18.162-34.357c6.705-8.835,13.291-15.134,19.756-18.899
				c6.462-3.762,12.394-5.645,17.793-5.645c10.633,0,15.952,5.318,15.952,15.952c0,6.382-1.803,17.915-5.399,34.604
				c-3.109,14.234-4.663,23.645-4.663,28.223c0,6.546,2.371,9.816,7.118,9.816c3.271,0,7.155-2.002,11.656-6.013
				c4.499-4.006,10.512-10.511,18.039-19.511c1.963-2.289,4.173-3.437,6.626-3.437c2.125,0,3.805,0.981,5.032,2.945
				c1.227,1.964,1.84,4.663,1.84,8.099c0,6.546-1.553,11.619-4.66,15.215c-7.036,8.674-14.603,15.792-22.7,21.352
				c-8.099,5.566-17.302,8.345-27.609,8.345c-8.346,0-14.646-2.412-18.898-7.241c-4.257-4.823-6.38-11.817-6.38-20.983
				c0-4.578,1.142-12.763,3.436-24.542c2.125-10.308,3.189-17.424,3.189-21.351c0-2.613-0.9-3.926-2.699-3.926
				c-2.128,0-5.115,2.74-8.957,8.221c-3.847,5.483-7.774,12.725-11.781,21.719c-4.012,9.001-7.24,18.492-9.693,28.47
				c-1.803,7.691-3.89,12.884-6.259,15.583c-2.374,2.7-6.098,4.051-11.167,4.051C347.483,239.458,343.107,236.187,340.574,229.641z"
				/>
			<path fill="#FFFFFF" d="M463.526,228.414c-5.811-7.361-8.712-17.015-8.712-28.96c0-13.088,3.024-25.48,9.08-37.181
				c6.05-11.697,14.112-21.106,24.174-28.224c10.062-7.117,20.738-10.676,32.026-10.676c3.599,0,6.013,0.697,7.24,2.086
				c1.228,1.392,2.247,3.889,3.067,7.485c3.107-0.651,6.545-0.982,10.31-0.982c3.925,0,6.952,0.982,9.08,2.946
				c2.124,1.963,3.19,4.747,3.19,8.344c0,3.766-0.821,10.309-2.454,19.634c-1.803,9.981-3.191,19.511-4.173,28.591
				c-0.982,9.079-1.474,19.265-1.474,30.554c0,6.222-1.269,10.678-3.804,13.378c-2.539,2.699-6.668,4.049-12.395,4.049
				c-5.565,0-9.694-1.35-12.395-4.049c-2.699-2.7-4.049-7.075-4.049-13.131l0.245-3.925c-5.074,14.072-13.827,21.105-26.261,21.105
				C476.901,239.458,469.331,235.777,463.526,228.414z M508.317,205.099c3.761-6.382,7.114-17.751,10.061-34.113l4.661-24.788
				c-6.71,0.165-12.927,2.741-18.651,7.73c-5.728,4.991-10.307,11.577-13.743,19.757c-3.436,8.183-5.154,16.854-5.154,26.015
				c0,4.908,0.939,8.631,2.823,11.167c1.879,2.537,4.375,3.804,7.484,3.804C500.376,214.67,504.548,211.481,508.317,205.099z"/>
		</g>
	</g>
	<g>
		<path fill="#FFFFFF" d="M235.904,192.091c2.616,0,4.579,0.983,5.891,2.945c1.307,1.963,1.963,4.502,1.963,7.609
			c0,4.908-1.188,9.079-3.559,12.515c-2.374,3.436-6.423,6.547-12.148,9.327c-9.656,4.583-22.172,8.221-37.55,10.921
			c-15.381,2.699-30.516,4.05-45.403,4.05c-20.616,0-37.879-2.331-51.784-6.993c-13.909-4.664-24.258-11.084-31.046-19.266
			c-6.791-8.18-10.185-17.426-10.185-27.734c0-14.069,4.54-26.053,13.621-35.954c9.081-9.896,22.456-17.057,40.126-21.475
			c-9.656-2.78-17.057-7.688-22.21-14.725c-5.154-7.033-7.731-14.887-7.731-23.561c0-11.78,3.72-22.211,11.167-31.291
			c7.443-9.081,17.463-16.075,30.064-20.983c12.597-4.909,26.421-7.363,41.477-7.363c20.286,0,35.501,4.378,45.648,13.129
			c10.143,8.754,15.216,20.086,15.216,33.991c0,9.657-1.76,17.467-5.276,23.438c-3.521,5.975-8.551,8.959-15.094,8.959
			c-4.583,0-8.183-1.02-10.798-3.067c-2.619-2.044-3.927-5.112-3.927-9.204c0-2.78,0.407-5.806,1.227-9.081
			c0.817-5.399,1.227-9.08,1.227-11.044c0-5.89-2.209-10.676-6.626-14.357c-4.417-3.682-11.78-5.522-22.088-5.522
			c-13.908,0-25.033,2.946-33.377,8.835c-8.344,5.89-12.517,13.828-12.517,23.806c0,7.692,3.149,14.031,9.449,19.02
			c6.297,4.993,16.566,7.731,30.8,8.222c3.597,0.165,6.136,0.981,7.608,2.454c1.473,1.474,2.208,3.927,2.208,7.362
			c0,10.799-4.908,16.282-14.725,16.443c-13.583,0.33-24.83,2.21-33.745,5.646c-8.919,3.436-15.381,7.814-19.389,13.129
			c-4.011,5.318-6.013,11.006-6.013,17.057c0,10.146,4.744,17.793,14.234,22.947c9.487,5.154,24.542,7.73,45.158,7.73
			c13.579,0,27.936-1.595,43.071-4.786c15.132-3.19,28.101-7.073,38.899-11.658C232.224,192.583,234.268,192.091,235.904,192.091z"
			/>
		<path fill="#FFFFFF" d="M228.907,229.641c-2.538-6.543-3.804-17.015-3.804-31.414c0-21.269,3.025-41.477,9.081-60.619
			c1.473-4.745,3.885-8.222,7.24-10.431c3.352-2.209,8.057-3.313,14.112-3.313c3.27,0,5.561,0.411,6.872,1.227
			c1.308,0.821,1.963,2.374,1.963,4.663c0,2.62-1.227,8.509-3.681,17.67c-1.637,6.546-2.945,12.271-3.927,17.181
			c-0.981,4.908-1.802,10.963-2.454,18.161c5.399-14.069,11.451-25.524,18.161-34.357c6.707-8.835,13.291-15.134,19.757-18.899
			c6.461-3.762,12.395-5.645,17.794-5.645c10.634,0,15.953,5.318,15.953,15.952c0,2.131-0.736,7.284-2.21,15.463
			c-1.312,6.547-1.962,10.639-1.962,12.271c0,5.729,2.044,8.591,6.136,8.591c4.577,0,10.469-3.598,17.67-10.799
			c2.123-2.125,4.333-3.191,6.626-3.191c2.124,0,3.804,0.943,5.031,2.823c1.228,1.883,1.84,4.379,1.84,7.485
			c0,6.054-1.637,10.798-4.908,14.233c-4.583,4.747-9.939,8.798-16.075,12.147c-6.135,3.355-12.639,5.031-19.511,5.031
			c-8.674,0-15.26-2.21-19.759-6.628c-4.501-4.417-6.749-10.389-6.749-17.914c0-2.454,0.246-4.909,0.736-7.36
			c0.326-3.271,0.491-5.48,0.491-6.629c0-2.614-0.901-3.926-2.7-3.926c-2.454,0-5.687,2.743-9.694,8.223
			c-4.012,5.483-7.977,12.723-11.903,21.719c-3.927,9-7.117,18.491-9.571,28.468c-1.803,7.691-3.889,12.884-6.258,15.584
			c-2.374,2.699-6.098,4.049-11.167,4.049C235.818,239.458,231.443,236.187,228.907,229.641z"/>
		<path fill="#FFFFFF" d="M340.574,229.641c-2.539-6.543-3.806-17.015-3.806-31.414c0-21.269,3.026-41.477,9.082-60.619
			c1.472-4.745,3.884-8.222,7.239-10.431c3.351-2.209,8.057-3.313,14.111-3.313c3.271,0,5.561,0.411,6.872,1.227
			c1.308,0.821,1.963,2.374,1.963,4.663c0,2.62-1.227,8.509-3.682,17.67c-1.637,6.546-2.945,12.271-3.926,17.181
			c-0.982,4.908-1.803,10.963-2.455,18.161c5.399-14.069,11.451-25.524,18.162-34.357c6.705-8.835,13.291-15.134,19.756-18.899
			c6.462-3.762,12.394-5.645,17.793-5.645c10.633,0,15.952,5.318,15.952,15.952c0,6.382-1.803,17.915-5.399,34.604
			c-3.109,14.234-4.663,23.645-4.663,28.223c0,6.546,2.371,9.816,7.118,9.816c3.271,0,7.155-2.002,11.656-6.013
			c4.499-4.006,10.512-10.511,18.039-19.511c1.963-2.289,4.173-3.437,6.626-3.437c2.125,0,3.805,0.981,5.032,2.945
			c1.227,1.964,1.84,4.663,1.84,8.099c0,6.546-1.553,11.619-4.66,15.215c-7.036,8.674-14.603,15.792-22.7,21.352
			c-8.099,5.566-17.302,8.345-27.609,8.345c-8.346,0-14.646-2.412-18.898-7.241c-4.257-4.823-6.38-11.817-6.38-20.983
			c0-4.578,1.142-12.763,3.436-24.542c2.125-10.308,3.189-17.424,3.189-21.351c0-2.613-0.9-3.926-2.699-3.926
			c-2.128,0-5.115,2.74-8.957,8.221c-3.847,5.483-7.774,12.725-11.781,21.719c-4.012,9.001-7.24,18.492-9.693,28.47
			c-1.803,7.691-3.89,12.884-6.259,15.583c-2.374,2.7-6.098,4.051-11.167,4.051C347.483,239.458,343.107,236.187,340.574,229.641z"
			/>
		<path fill="#FFFFFF" d="M463.526,228.414c-5.811-7.361-8.712-17.015-8.712-28.96c0-13.088,3.024-25.48,9.08-37.181
			c6.05-11.697,14.112-21.106,24.174-28.224c10.062-7.117,20.738-10.676,32.026-10.676c3.599,0,6.013,0.697,7.24,2.086
			c1.228,1.392,2.247,3.889,3.067,7.485c3.107-0.651,6.545-0.982,10.31-0.982c3.925,0,6.952,0.982,9.08,2.946
			c2.124,1.963,3.19,4.747,3.19,8.344c0,3.766-0.821,10.309-2.454,19.634c-1.803,9.981-3.191,19.511-4.173,28.591
			c-0.982,9.079-1.474,19.265-1.474,30.554c0,6.222-1.269,10.678-3.804,13.378c-2.539,2.699-6.668,4.049-12.395,4.049
			c-5.565,0-9.694-1.35-12.395-4.049c-2.699-2.7-4.049-7.075-4.049-13.131l0.245-3.925c-5.074,14.072-13.827,21.105-26.261,21.105
			C476.901,239.458,469.331,235.777,463.526,228.414z M508.317,205.099c3.761-6.382,7.114-17.751,10.061-34.113l4.661-24.788
			c-6.71,0.165-12.927,2.741-18.651,7.73c-5.728,4.991-10.307,11.577-13.743,19.757c-3.436,8.183-5.154,16.854-5.154,26.015
			c0,4.908,0.939,8.631,2.823,11.167c1.879,2.537,4.375,3.804,7.484,3.804C500.376,214.67,504.548,211.481,508.317,205.099z"/>
	</g>
</g>
</svg>
