<?xml version="1.0" encoding="UTF-8" standalone="no"?>
<!-- Generator: Adobe Illustrator 15.0.2, SVG Export Plug-In . SVG Version: 6.00 Build 0)  -->

<svg
   xmlns:dc="http://purl.org/dc/elements/1.1/"
   xmlns:cc="http://creativecommons.org/ns#"
   xmlns:rdf="http://www.w3.org/1999/02/22-rdf-syntax-ns#"
   xmlns:svg="http://www.w3.org/2000/svg"
   xmlns="http://www.w3.org/2000/svg"
   xmlns:sodipodi="http://sodipodi.sourceforge.net/DTD/sodipodi-0.dtd"
   xmlns:inkscape="http://www.inkscape.org/namespaces/inkscape"
   version="1.1"
   id="SVGs"
   x="0px"
   y="0px"
   width="32"
   height="32"
   viewBox="0 0 32 32"
   enable-background="new 0 0 53.846 48.951"
   xml:space="preserve"
   inkscape:version="0.48.4 r9939"
   sodipodi:docname="icon_xmpl.svg"><metadata
     id="metadata3317"><rdf:RDF><cc:Work
         rdf:about=""><dc:format>image/svg+xml</dc:format><dc:type
           rdf:resource="http://purl.org/dc/dcmitype/StillImage" /></cc:Work></rdf:RDF></metadata><defs
     id="defs3315" /><sodipodi:namedview
     pagecolor="#ffffff"
     bordercolor="#666666"
     borderopacity="1"
     objecttolerance="10"
     gridtolerance="10"
     guidetolerance="10"
     inkscape:pageopacity="0"
     inkscape:pageshadow="2"
     inkscape:window-width="1680"
     inkscape:window-height="974"
     id="namedview3313"
     showgrid="false"
     inkscape:zoom="4.8211477"
     inkscape:cx="-10.234063"
     inkscape:cy="13.6575"
     inkscape:window-x="0"
     inkscape:window-y="24"
     inkscape:window-maximized="1"
     inkscape:current-layer="SVGs" /><g
     id="MatchMemoPool"
     transform="translate(-11.055072,-8.7027321)"><path
       d="m 40.394,28.736 c 0.189,1.088 -0.539,2.124 -1.627,2.313 L 18.108,32.993 C 17.02,33.182 15.984,32.454 15.795,31.366 L 12.879,14.618 c -0.189,-1.088 0.539,-2.124 1.627,-2.313 0,0 3.548,-0.502 4.709,-0.641 1.161,-0.14 1.301,0.655 1.301,0.655 l 0.362,2.065 15.287,-2.025 c 1.088,-0.189 2.124,0.539 2.313,1.628 l 1.916,14.749 z"
       id="path3236"
       inkscape:connector-curvature="0"
       style="fill:#ffffff" /><g
       id="g3238"><linearGradient
         id="SVGID_1_"
         gradientUnits="userSpaceOnUse"
         x1="27.829599"
         y1="25.0942"
         x2="23.2992"
         y2="9.3190002"><stop
           offset="0.1311"
           style="stop-color:#FFFF00"
           id="stop3241" /><stop
           offset="0.2549"
           style="stop-color:#FFFF2F"
           id="stop3243" /><stop
           offset="0.4609"
           style="stop-color:#FFFF78"
           id="stop3245" /><stop
           offset="0.646"
           style="stop-color:#FFFFB2"
           id="stop3247" /><stop
           offset="0.8031"
           style="stop-color:#FFFFDC"
           id="stop3249" /><stop
           offset="0.9262"
           style="stop-color:#FFFFF6"
           id="stop3251" /><stop
           offset="1"
           style="stop-color:#FFFFFF"
           id="stop3253" /></linearGradient><path
         d="m 15.857,29.391 c -0.532,-4.049 4.551,-8.055 11.353,-8.949 5.714,-0.751 10.808,0.938 12.613,3.897 L 38.478,13.988 C 38.289,12.899 37.253,12.171 36.165,12.36 L 20.878,14.385 20.516,12.32 c 0,0 -0.14,-0.795 -1.301,-0.655 -1.161,0.139 -4.709,0.641 -4.709,0.641 -1.088,0.189 -1.817,1.226 -1.627,2.313 l 2.916,16.748 c 0.189,1.088 1.225,1.816 2.313,1.627 l 0.088,-0.008 C 16.893,32.021 16.042,30.8 15.857,29.391 z"
         id="path3255"
         inkscape:connector-curvature="0"
         style="fill:url(#SVGID_1_)" /><linearGradient
         id="SVGID_2_"
         gradientUnits="userSpaceOnUse"
         x1="37.2798"
         y1="22.3818"
         x2="32.749199"
         y2="6.6058998"><stop
           offset="0.1311"
           style="stop-color:#FFFF00"
           id="stop3258" /><stop
           offset="0.2549"
           style="stop-color:#FFFF2F"
           id="stop3260" /><stop
           offset="0.4609"
           style="stop-color:#FFFF78"
           id="stop3262" /><stop
           offset="0.646"
           style="stop-color:#FFFFB2"
           id="stop3264" /><stop
           offset="0.8031"
           style="stop-color:#FFFFDC"
           id="stop3266" /><stop
           offset="0.9262"
           style="stop-color:#FFFFF6"
           id="stop3268" /><stop
           offset="1"
           style="stop-color:#FFFFFF"
           id="stop3270" /></linearGradient><path
         d="m 40.311,28.097 c -0.314,1.054 -0.974,2.069 -1.922,2.988 l 0.377,-0.035 c 1.088,-0.189 1.817,-1.226 1.627,-2.313 l -0.082,-0.64 z"
         id="path3272"
         inkscape:connector-curvature="0"
         style="fill:url(#SVGID_2_)" /><radialGradient
         id="SVGID_3_"
         cx="28.064899"
         cy="26.625"
         r="9.7579002"
         gradientTransform="matrix(1,0,0,0.75,0,6.6562)"
         gradientUnits="userSpaceOnUse"><stop
           offset="0.0245"
           style="stop-color:#FFFF00"
           id="stop3275" /><stop
           offset="0.2932"
           style="stop-color:#FDDE19"
           id="stop3277" /><stop
           offset="0.5618"
           style="stop-color:#FCC52C"
           id="stop3279" /><stop
           offset="0.8051"
           style="stop-color:#FBB537"
           id="stop3281" /><stop
           offset="1"
           style="stop-color:#FBB03B"
           id="stop3283" /></radialGradient><path
         d="M 39.823,24.339 C 38.018,21.38 32.924,19.691 27.21,20.442 c -6.802,0.895 -11.885,4.9 -11.353,8.949 0.185,1.409 1.036,2.631 2.339,3.596 l 20.193,-1.901 c 0.948,-0.919 1.608,-1.935 1.922,-2.988 l -0.488,-3.759 z"
         id="path3285"
         inkscape:connector-curvature="0"
         style="fill:url(#SVGID_3_)" /></g><path
       stroke-miterlimit="10"
       d="m 40.394,28.736 c 0.189,1.088 -0.539,2.124 -1.627,2.313 L 18.108,32.993 C 17.02,33.182 15.984,32.454 15.795,31.366 L 12.879,14.618 c -0.189,-1.088 0.539,-2.124 1.627,-2.313 0,0 3.548,-0.502 4.709,-0.641 1.161,-0.14 1.301,0.655 1.301,0.655 l 0.362,2.065 15.287,-2.025 c 1.088,-0.189 2.124,0.539 2.313,1.628 l 1.916,14.749 z"
       id="path3287"
       inkscape:connector-curvature="0"
       style="fill:none;stroke:#ff931e;stroke-width:0.75;stroke-linejoin:round;stroke-miterlimit:10" /><g
       id="g3289"><polygon
         stroke-miterlimit="10"
         points="41.136,22.521 41.136,37.633 27.136,37.633 27.136,20.633 38.714,20.633 "
         id="polygon3291"
         style="fill:#ffffff;stroke:#b3b3b3;stroke-miterlimit:10" /><g
         id="g3293"><rect
           x="36.636002"
           y="32.132999"
           width="3"
           height="3"
           id="rect3295"
           style="fill:#de7db1" /><rect
           x="32.636002"
           y="32.132999"
           width="3"
           height="3"
           id="rect3297"
           style="fill:#c89cdc" /><rect
           x="28.636"
           y="32.132999"
           width="3"
           height="3"
           id="rect3299"
           style="fill:#6578ae" /><rect
           x="36.636002"
           y="28.132999"
           width="3"
           height="3"
           id="rect3301"
           style="fill:#81ade8" /><rect
           x="32.636002"
           y="28.132999"
           width="3"
           height="3"
           id="rect3303"
           style="fill:#88cb70" /><rect
           x="28.636"
           y="28.132999"
           width="3"
           height="3"
           id="rect3305"
           style="fill:#d9ebb4" /><rect
           x="36.636002"
           y="24.132999"
           width="3"
           height="3"
           id="rect3307"
           style="fill:#e8d76e" /><rect
           x="32.636002"
           y="24.132999"
           width="3"
           height="3"
           id="rect3309"
           style="fill:#e8ae78" /><rect
           x="28.636"
           y="24.132999"
           width="3"
           height="3"
           id="rect3311"
           style="fill:#dd776e" /></g></g></g></svg>