<?xml version="1.0" encoding="utf-8"?>
<!-- Generator: Adobe Illustrator 15.0.2, SVG Export Plug-In . SVG Version: 6.00 Build 0)  -->
<!DOCTYPE svg PUBLIC "-//W3C//DTD SVG 1.1//EN" "http://www.w3.org/Graphics/SVG/1.1/DTD/svg11.dtd">
<svg version="1.1" id="SVGs" xmlns="http://www.w3.org/2000/svg" xmlns:xlink="http://www.w3.org/1999/xlink" x="0px" y="0px"
	 width="32px" height="32px" viewBox="13 13 25 25" enable-background="new 0 0 53.846 48.951" xml:space="preserve">
<g id="Image">
	<linearGradient id="SVGID_1_" gradientUnits="userSpaceOnUse" x1="26.79" y1="14.6328" x2="26.79" y2="33.6328">
		<stop  offset="0" style="stop-color:#FFFFFF"/>
		<stop  offset="0.2718" style="stop-color:#FBFBFB"/>
		<stop  offset="0.5627" style="stop-color:#EEEEEE"/>
		<stop  offset="0.8615" style="stop-color:#D9D9D9"/>
		<stop  offset="1" style="stop-color:#CCCCCC"/>
	</linearGradient>
	<rect x="17.29" y="14.633" fill="url(#SVGID_1_)" stroke="#999999" stroke-miterlimit="10" width="19" height="19"/>
	<line fill="none" stroke="#666666" stroke-miterlimit="10" x1="15.79" y1="33.633" x2="37.79" y2="33.633"/>
	<line fill="none" stroke="#CCCCCC" stroke-miterlimit="10" x1="36.79" y1="32.633" x2="37.79" y2="32.633"/>
	<line fill="none" stroke="#CCCCCC" stroke-miterlimit="10" x1="15.79" y1="32.633" x2="16.79" y2="32.633"/>
	<radialGradient id="SVGID_2_" cx="26.2485" cy="22.1328" r="5.8983" fx="26.7428" fy="23.042" gradientUnits="userSpaceOnUse">
		<stop  offset="0" style="stop-color:#B1D9EC"/>
		<stop  offset="0.3014" style="stop-color:#7FA0B8"/>
		<stop  offset="0.7813" style="stop-color:#334B6A"/>
		<stop  offset="1" style="stop-color:#15294B"/>
	</radialGradient>
	<rect x="18.79" y="16.133" fill="url(#SVGID_2_)" width="16" height="12"/>
	<line fill="none" stroke="#B4BEC8" stroke-miterlimit="10" x1="19.79" y1="17.633" x2="20.79" y2="17.633"/>
	<line fill="none" stroke="#B4BEC8" stroke-miterlimit="10" x1="20.79" y1="21.633" x2="21.79" y2="21.633"/>
	<line fill="none" stroke="#B4BEC8" stroke-miterlimit="10" x1="24.79" y1="17.633" x2="25.79" y2="17.633"/>
	<line fill="none" stroke="#B4BEC8" stroke-miterlimit="10" x1="26.79" y1="20.633" x2="27.79" y2="20.633"/>
	<line fill="none" stroke="#B4BEC8" stroke-miterlimit="10" x1="23.79" y1="20.633" x2="24.79" y2="20.633"/>
	<line fill="none" stroke="#B4BEC8" stroke-miterlimit="10" x1="32.79" y1="17.633" x2="33.79" y2="17.633"/>
	<line fill="none" stroke="#B4BEC8" stroke-miterlimit="10" x1="31.79" y1="19.633" x2="32.79" y2="19.633"/>
	<line fill="none" stroke="#B4BEC8" stroke-miterlimit="10" x1="28.79" y1="21.633" x2="29.79" y2="21.633"/>
	<g>
		
			<radialGradient id="SVGID_3_" cx="31.292" cy="26.3149" r="8.9098" fx="30.8394" fy="30.2015" gradientTransform="matrix(1 0 0 0.5 0 13.1575)" gradientUnits="userSpaceOnUse">
			<stop  offset="0.3249" style="stop-color:#231B0B"/>
			<stop  offset="0.9325" style="stop-color:#46631A"/>
		</radialGradient>
		<path fill="url(#SVGID_3_)" d="M25.77,28.133h9.021v-3.821l-1.224-1.269c-3.429-3.09-5.016,0.013-6.297,0.842
			c-1.027,0.665-2.013,1.49-3.245,1.412L25.77,28.133z"/>
		
			<radialGradient id="SVGID_4_" cx="21.8496" cy="28.4033" r="4.9439" fx="19.7264" fy="28.3756" gradientTransform="matrix(0.527 -0.8499 1.4872 0.9223 -31.9083 20.7767)" gradientUnits="userSpaceOnUse">
			<stop  offset="0" style="stop-color:#46631A"/>
			<stop  offset="0.2717" style="stop-color:#374313"/>
			<stop  offset="0.5764" style="stop-color:#28260D"/>
			<stop  offset="0.75" style="stop-color:#231B0B"/>
		</radialGradient>
		<path fill="url(#SVGID_4_)" d="M26.909,28.133h-7.981l-0.003-4.455c0,0,3.5,0.209,5.101,1.258
			C25.627,25.983,26.909,28.133,26.909,28.133z"/>
	</g>
	<g>
		<path fill="#B4BEC8" d="M30.476,19.454c-0.092,0.044-0.296,0.112-0.556,0.112c-0.584,0-0.964-0.396-0.964-0.987
			c0-0.596,0.408-1.032,1.04-1.032c0.208,0,0.392,0.052,0.487,0.104l-0.08,0.268c-0.084-0.044-0.216-0.092-0.407-0.092
			c-0.444,0-0.684,0.332-0.684,0.731c0,0.448,0.287,0.724,0.671,0.724c0.2,0,0.332-0.048,0.433-0.092L30.476,19.454z"/>
	</g>
</g>
</svg>
