<?xml version="1.0" encoding="UTF-8" standalone="no"?>
<!-- Generator: Adobe Illustrator 15.0.2, SVG Export Plug-In . SVG Version: 6.00 Build 0)  -->

<svg
   xmlns:dc="http://purl.org/dc/elements/1.1/"
   xmlns:cc="http://creativecommons.org/ns#"
   xmlns:rdf="http://www.w3.org/1999/02/22-rdf-syntax-ns#"
   xmlns:svg="http://www.w3.org/2000/svg"
   xmlns="http://www.w3.org/2000/svg"
   xmlns:sodipodi="http://sodipodi.sourceforge.net/DTD/sodipodi-0.dtd"
   xmlns:inkscape="http://www.inkscape.org/namespaces/inkscape"
   version="1.1"
   id="SVGs"
   x="0px"
   y="0px"
   width="32px"
   height="32px"
   viewBox="0 0 32 32"
   enable-background="new 0 0 32 32"
   xml:space="preserve"
   inkscape:version="0.48.4 r9939"
   sodipodi:docname="icon_xmry.svg"><metadata
     id="metadata3506"><rdf:RDF><cc:Work
         rdf:about=""><dc:format>image/svg+xml</dc:format><dc:type
           rdf:resource="http://purl.org/dc/dcmitype/StillImage" /></cc:Work></rdf:RDF></metadata><defs
     id="defs3504" /><sodipodi:namedview
     pagecolor="#ffffff"
     bordercolor="#666666"
     borderopacity="1"
     objecttolerance="10"
     gridtolerance="10"
     guidetolerance="10"
     inkscape:pageopacity="0"
     inkscape:pageshadow="2"
     inkscape:window-width="1680"
     inkscape:window-height="974"
     id="namedview3502"
     showgrid="false"
     inkscape:zoom="7.375"
     inkscape:cx="-0.13559322"
     inkscape:cy="16"
     inkscape:window-x="0"
     inkscape:window-y="24"
     inkscape:window-maximized="1"
     inkscape:current-layer="SVGs" /><g
     id="MatchMemo"
     transform="translate(-10.79,-8.133)"><linearGradient
       id="SVGID_1_"
       gradientUnits="userSpaceOnUse"
       x1="26.790001"
       y1="36.632801"
       x2="26.790001"
       y2="11.6328"><stop
         offset="0.0245"
         style="stop-color:#29ABE2"
         id="stop3458" /><stop
         offset="0.5091"
         style="stop-color:#28A9E1"
         id="stop3460" /><stop
         offset="0.6868"
         style="stop-color:#23A2DC"
         id="stop3462" /><stop
         offset="0.8139"
         style="stop-color:#1A96D5"
         id="stop3464" /><stop
         offset="0.9164"
         style="stop-color:#0F86C9"
         id="stop3466" /><stop
         offset="1"
         style="stop-color:#0071BC"
         id="stop3468" /></linearGradient><path
       stroke-miterlimit="10"
       d="m 41.29,36.633 h -29 V 13.976 c 0,-1.104 1.028,-2.343 2.133,-2.343 h 25 c 1.104,0 1.867,1.238 1.867,2.343 v 22.657 z"
       id="path3470"
       style="fill:url(#SVGID_1_);stroke:#0071bc;stroke-miterlimit:10"
       inkscape:connector-curvature="0" /><path
       d="m 39.795,19.039 c 0,-0.009 -0.005,-0.017 -0.005,-0.026 V 19 l -0.003,-0.002 c -0.023,-0.48 -0.412,-0.865 -0.898,-0.865 -0.042,0 -0.077,0.018 -0.117,0.023 l -0.029,-0.023 c -0.517,0 -23.311,0 -24.07,0 -0.117,0 -0.215,0.028 -0.304,0.066 -0.03,0.012 -0.056,0.03 -0.084,0.045 -0.036,0.022 -0.072,0.043 -0.103,0.069 -0.231,0.165 -0.392,0.421 -0.392,0.726 0,0.007 0.004,0.012 0.004,0.019 -0.001,0.009 -0.004,0.023 -0.004,0.023 v 16.051 h 26 V 19.065 c 10e-4,-0.009 0.005,-0.017 0.005,-0.026 z"
       id="path3472"
       inkscape:connector-curvature="0"
       style="fill:#ffffff" /><g
       id="g3474"><rect
         x="15.79"
         y="20.132999"
         width="4"
         height="4"
         id="rect3476"
         style="fill:#c4c4c4" /><rect
         x="21.790001"
         y="20.132999"
         width="4"
         height="4"
         id="rect3478"
         style="fill:#6395e3" /><rect
         x="27.790001"
         y="20.132999"
         width="4"
         height="4"
         id="rect3480"
         style="fill:#95bf71" /><rect
         x="33.790001"
         y="20.132999"
         width="4"
         height="4"
         id="rect3482"
         style="fill:#c4c4c4" /><rect
         x="15.79"
         y="26.132999"
         width="4"
         height="4"
         id="rect3484"
         style="fill:#6395e3" /><rect
         x="21.790001"
         y="26.132999"
         width="4"
         height="4"
         id="rect3486"
         style="fill:#c4c4c4" /><rect
         x="27.790001"
         y="26.132999"
         width="4"
         height="4"
         id="rect3488"
         style="fill:#e39652" /><rect
         x="33.790001"
         y="26.132999"
         width="4"
         height="4"
         id="rect3490"
         style="fill:#e1cb47" /><rect
         x="15.79"
         y="32.132999"
         width="4"
         height="3"
         id="rect3492"
         style="fill:#dc6d61" /><rect
         x="21.790001"
         y="32.132999"
         width="4"
         height="3"
         id="rect3494"
         style="fill:#a9ce8a" /><rect
         x="27.790001"
         y="32.132999"
         width="4"
         height="3"
         id="rect3496"
         style="fill:#d1d0ce" /><rect
         x="33.790001"
         y="32.132999"
         width="4"
         height="3"
         id="rect3498"
         style="fill:#d1d0ce" /></g><line
       stroke-miterlimit="10"
       x1="12.79"
       y1="35.632999"
       x2="40.790001"
       y2="35.632999"
       id="line3500"
       style="fill:none;stroke:#0071bc;stroke-miterlimit:10" /></g></svg>